<?xml version="1.0" encoding="UTF-8"?>
<svg id="Layer_3" data-name="Layer 3" xmlns="http://www.w3.org/2000/svg" viewBox="0 0 24 24">
  <path d="M12,2.5c5.24,0,9.5,4.26,9.5,9.5s-4.26,9.5-9.5,9.5S2.5,17.24,2.5,12,6.76,2.5,12,2.5M12,1C5.92,1,1,5.92,1,12s4.92,11,11,11,11-4.92,11-11S18.08,1,12,1h0Z"/>
  <polygon points="2.34 12.37 6 8.71 5.04 7.79 8.8 7.25 8.24 10.96 7.27 10.03 2.55 14.72 2.34 12.37"/>
  <polygon points="7.8 21.41 11.46 17.74 10.51 16.82 14.26 16.29 13.7 20 12.73 19.07 9.62 22.16 7.8 21.41"/>
  <polygon points="4.02 18.21 12.69 9.54 11.73 8.62 15.48 8.08 14.93 11.8 13.96 10.87 5.13 19.65 4.02 18.21"/>
  <polygon points="15.51 16.28 14.25 15.03 20.93 8.36 21.58 10.21 15.51 16.28"/>
  <polygon points="16.67 8.03 15.41 6.79 18.43 3.77 19.81 4.97 16.67 8.03"/>
  <polygon points="10.26 7.03 8.99 5.79 13.02 1.77 14.7 2.55 10.26 7.03"/>
</svg>