<?xml version="1.0" encoding="UTF-8"?>
<svg xmlns="http://www.w3.org/2000/svg" viewBox="0 0 178.81 178.81">
  <defs>
    <style>
      .cls-1 {
        fill: #231f20;
      }
    </style>
  </defs>
  <g id="Layer_1" data-name="Layer 1">
    <g>
      <path class="cls-1" d="M128.44,71.95c2.38-12.11,7.19-24.21,14.45-36.32-12.11,7.26-24.21,12.07-36.32,14.45,5.98,8.6,13.27,15.89,21.87,21.87Z"/>
      <path class="cls-1" d="M71.21,50.08c-12.11-2.38-24.21-7.19-36.32-14.45,7.26,12.11,12.07,24.21,14.45,36.32,8.6-5.98,15.89-13.27,21.87-21.87Z"/>
      <path class="cls-1" d="M106.57,129.18c12.11,2.38,24.21,7.19,36.32,14.45-7.26-12.11-12.07-24.21-14.45-36.32-8.6,5.98-15.89,13.27-21.87,21.87Z"/>
      <path class="cls-1" d="M49.34,107.32c-2.38,12.11-7.19,24.21-14.45,36.32,12.11-7.26,24.21-12.07,36.32-14.45-5.98-8.6-13.27-15.89-21.87-21.87Z"/>
    </g>
  </g>
  <g id="Layer_2" data-name="Layer 2">
    <path class="cls-1" d="M89.4,0C80.46,50.66,50.66,80.46,0,89.4c50.66,8.94,80.46,38.74,89.4,89.4,8.94-50.66,38.74-80.46,89.4-89.4C128.15,80.46,98.35,50.66,89.4,0ZM111.72,111.56c-9.08,9.08-16.43,19.96-21.99,32.52-5.56-12.57-12.9-23.44-21.99-32.52s-19.96-16.43-32.52-21.99c12.57-5.56,23.44-12.9,32.52-21.99,9.08-9.08,16.43-19.96,21.99-32.52,5.56,12.57,12.9,23.44,21.99,32.52,9.08,9.08,19.96,16.43,32.52,21.99-12.57,5.56-23.44,12.9-32.52,21.99Z"/>
  </g>
</svg>