<?xml version="1.0" encoding="UTF-8"?>
<svg xmlns="http://www.w3.org/2000/svg" viewBox="0 0 121.78 118.76">
  <defs>
    <style>
      .cls-1 {
        fill: none;
        stroke: #000;
        stroke-miterlimit: 10;
        stroke-width: 8px;
      }
    </style>
  </defs>
  <g id="bottom">
    <g>
      <path d="M13.1,51.39c.58,1.36,1.26,2.6,1.91,3.65,9.03-10.91,26.12-18.28,45.68-18.28s36.94,7.5,45.91,18.57c.7-1.11,1.45-2.45,2.09-3.93.62-1.44,1.01-2.88,1.26-4.13-10.98-11.19-28.96-18.5-49.26-18.5s-37.9,7.16-48.91,18.15c.25,1.33.65,2.91,1.33,4.48Z"/>
      <path d="M115.31,53.55c-.26,2.06-.76,4.41-1.71,5.84-.84,1.26-1.67,2.33-2.37,3.17,1.4,3.24,2.16,6.66,2.16,10.2,0,19.85-23.55,36-52.5,36S8.39,92.61,8.39,72.76c0-3.66.81-7.2,2.3-10.53-.63-.78-1.36-1.74-2.09-2.83-1.03-1.55-1.53-4.17-1.77-6.34C2.72,58.98.39,65.68.39,72.76c0,24.26,27.14,44,60.5,44s60.5-19.74,60.5-44c0-6.88-2.19-13.4-6.08-19.21Z"/>
    </g>
  </g>
  <g id="sides">
    <rect x=".39" y="48.39" width="8" height="24"/>
    <rect x="113.39" y="51.39" width="8" height="21"/>
  </g>
  <g id="top">
    <ellipse class="cls-1" cx="60.89" cy="50.39" rx="56.5" ry="40"/>
  </g>
</svg>